<?xml version="1.0" encoding="UTF-8"?>
<svg xmlns="http://www.w3.org/2000/svg" width="32pt" height="32pt" viewBox="0 0 32 32" version="1.1">
<defs>
<clipPath id="clip1">
  <path d="M 1.332031 1.332031 L 30.667969 1.332031 L 30.667969 30.667969 L 1.332031 30.667969 Z M 1.332031 1.332031 "/>
</clipPath>
</defs>
<g id="surface1">
<g clip-path="url(#clip1)" clip-rule="nonzero">
<path style=" stroke:none;fill-rule:nonzero;fill:rgb(61.568627%,65.098039%,86.666667%);fill-opacity:1;" d="M 16 30.667969 C 7.914062 30.667969 1.332031 24.085938 1.332031 16 C 1.332031 7.914062 7.914062 1.332031 16 1.332031 C 24.085938 1.332031 30.667969 7.914062 30.667969 16 C 30.667969 24.085938 24.085938 30.667969 16 30.667969 M 16 5.242188 C 10.066406 5.242188 5.242188 10.066406 5.242188 16 C 5.242188 21.933594 10.066406 26.757812 16 26.757812 C 21.933594 26.757812 26.757812 21.933594 26.757812 16 C 26.757812 10.066406 21.933594 5.242188 16 5.242188 "/>
</g>
<path style=" stroke:none;fill-rule:nonzero;fill:rgb(24.705882%,31.764706%,70.980392%);fill-opacity:1;" d="M 16 27.734375 C 9.527344 27.734375 4.265625 22.472656 4.265625 16 C 4.265625 9.527344 9.527344 4.265625 16 4.265625 C 22.472656 4.265625 27.734375 9.527344 27.734375 16 C 27.734375 22.472656 22.472656 27.734375 16 27.734375 M 16 6.710938 C 10.875 6.710938 6.710938 10.875 6.710938 16 C 6.710938 21.125 10.875 25.289062 16 25.289062 C 21.125 25.289062 25.289062 21.125 25.289062 16 C 25.289062 10.875 21.125 6.710938 16 6.710938 "/>
</g>
</svg>
